<?xml version="1.0" encoding="UTF-8" standalone="no"?><svg xmlns="http://www.w3.org/2000/svg" xmlns:xlink="http://www.w3.org/1999/xlink" contentScriptType="application/ecmascript" contentStyleType="text/css" height="767px" preserveAspectRatio="none" style="width:242px;height:767px;" version="1.1" viewBox="0 0 242 767" width="242px" zoomAndPan="magnify"><defs><filter height="300%" id="f1bqqle998xb1q" width="300%" x="-1" y="-1"><feGaussianBlur result="blurOut" stdDeviation="2.0"/><feColorMatrix in="blurOut" result="blurOut2" type="matrix" values="0 0 0 0 0 0 0 0 0 0 0 0 0 0 0 0 0 0 .4 0"/><feOffset dx="4.0" dy="4.0" in="blurOut2" result="blurOut3"/><feBlend in="SourceGraphic" in2="blurOut3" mode="normal"/></filter></defs><g><!--class Player--><rect fill="#FEFECE" filter="url(#f1bqqle998xb1q)" height="73.6094" id="Player" style="stroke: #A80036; stroke-width: 1.5;" width="70" x="83.5" y="683"/><ellipse cx="98.5" cy="699" fill="#ADD1B2" rx="11" ry="11" style="stroke: #A80036; stroke-width: 1.0;"/><path d="M100.8438,694.6719 L101.0156,694.75 C101.2344,694.4375 101.4375,694.3438 101.7344,694.3438 C102.0313,694.3438 102.3125,694.4844 102.4688,694.75 C102.5625,694.9063 102.5781,695.0313 102.5781,695.4688 L102.5781,696.8906 C102.5781,697.3125 102.5469,697.5 102.4375,697.6563 C102.2656,697.875 102,698.0156 101.7344,698.0156 C101.5156,698.0156 101.2813,697.9063 101.1406,697.7656 C101,697.6406 100.9688,697.5156 100.9063,697.1094 C100.8125,696.7031 100.6406,696.4844 100.1563,696.2031 C99.6875,695.9531 99.0781,695.7969 98.5,695.7969 C96.7656,695.7969 95.5156,697.1094 95.5156,698.8906 L95.5156,699.9844 C95.5156,701.6875 96.8125,702.7813 98.8594,702.7813 C99.625,702.7813 100.3125,702.6563 100.7344,702.3906 C100.9219,702.2969 100.9219,702.2969 101.375,701.8125 C101.5625,701.625 101.7656,701.5469 101.9844,701.5469 C102.4531,701.5469 102.8438,701.9375 102.8438,702.3906 C102.8438,702.7813 102.5156,703.2344 101.9375,703.6406 C101.1875,704.1875 100.0313,704.4844 98.8125,704.4844 C95.9219,704.4844 93.8125,702.5938 93.8125,700.0156 L93.8125,698.8906 C93.8125,696.1719 95.8125,694.0938 98.4375,694.0938 C99.3125,694.0938 99.9063,694.2344 100.8438,694.6719 Z "/><text fill="#000000" font-family="sans-serif" font-size="12" lengthAdjust="spacingAndGlyphs" textLength="38" x="112.5" y="703.1543">Player</text><line style="stroke: #A80036; stroke-width: 1.5;" x1="84.5" x2="152.5" y1="715" y2="715"/><text fill="#000000" font-family="sans-serif" font-size="11" lengthAdjust="spacingAndGlyphs" textLength="19" x="89.5" y="729.2104">UID</text><text fill="#000000" font-family="sans-serif" font-size="11" lengthAdjust="spacingAndGlyphs" textLength="33" x="89.5" y="742.0151">Name</text><line style="stroke: #A80036; stroke-width: 1.5;" x1="84.5" x2="152.5" y1="748.6094" y2="748.6094"/><!--class Team--><rect fill="#FEFECE" filter="url(#f1bqqle998xb1q)" height="73.6094" id="Team" style="stroke: #A80036; stroke-width: 1.5;" width="66" x="85.5" y="549"/><ellipse cx="100.5" cy="565" fill="#ADD1B2" rx="11" ry="11" style="stroke: #A80036; stroke-width: 1.0;"/><path d="M102.8438,560.6719 L103.0156,560.75 C103.2344,560.4375 103.4375,560.3438 103.7344,560.3438 C104.0313,560.3438 104.3125,560.4844 104.4688,560.75 C104.5625,560.9063 104.5781,561.0313 104.5781,561.4688 L104.5781,562.8906 C104.5781,563.3125 104.5469,563.5 104.4375,563.6563 C104.2656,563.875 104,564.0156 103.7344,564.0156 C103.5156,564.0156 103.2813,563.9063 103.1406,563.7656 C103,563.6406 102.9688,563.5156 102.9063,563.1094 C102.8125,562.7031 102.6406,562.4844 102.1563,562.2031 C101.6875,561.9531 101.0781,561.7969 100.5,561.7969 C98.7656,561.7969 97.5156,563.1094 97.5156,564.8906 L97.5156,565.9844 C97.5156,567.6875 98.8125,568.7813 100.8594,568.7813 C101.625,568.7813 102.3125,568.6563 102.7344,568.3906 C102.9219,568.2969 102.9219,568.2969 103.375,567.8125 C103.5625,567.625 103.7656,567.5469 103.9844,567.5469 C104.4531,567.5469 104.8438,567.9375 104.8438,568.3906 C104.8438,568.7813 104.5156,569.2344 103.9375,569.6406 C103.1875,570.1875 102.0313,570.4844 100.8125,570.4844 C97.9219,570.4844 95.8125,568.5938 95.8125,566.0156 L95.8125,564.8906 C95.8125,562.1719 97.8125,560.0938 100.4375,560.0938 C101.3125,560.0938 101.9063,560.2344 102.8438,560.6719 Z "/><text fill="#000000" font-family="sans-serif" font-size="12" lengthAdjust="spacingAndGlyphs" textLength="34" x="114.5" y="569.1543">Team</text><line style="stroke: #A80036; stroke-width: 1.5;" x1="86.5" x2="150.5" y1="581" y2="581"/><text fill="#000000" font-family="sans-serif" font-size="11" lengthAdjust="spacingAndGlyphs" textLength="19" x="91.5" y="595.2104">UID</text><text fill="#000000" font-family="sans-serif" font-size="11" lengthAdjust="spacingAndGlyphs" textLength="50" x="91.5" y="608.0151">Players[]</text><line style="stroke: #A80036; stroke-width: 1.5;" x1="86.5" x2="150.5" y1="614.6094" y2="614.6094"/><!--class Match--><rect fill="#FEFECE" filter="url(#f1bqqle998xb1q)" height="133.6328" id="Match" style="stroke: #A80036; stroke-width: 1.5;" width="92" x="72.5" y="355"/><ellipse cx="97.4" cy="371" fill="#ADD1B2" rx="11" ry="11" style="stroke: #A80036; stroke-width: 1.0;"/><path d="M99.7438,366.6719 L99.9156,366.75 C100.1344,366.4375 100.3375,366.3438 100.6344,366.3438 C100.9313,366.3438 101.2125,366.4844 101.3688,366.75 C101.4625,366.9063 101.4781,367.0313 101.4781,367.4688 L101.4781,368.8906 C101.4781,369.3125 101.4469,369.5 101.3375,369.6563 C101.1656,369.875 100.9,370.0156 100.6344,370.0156 C100.4156,370.0156 100.1813,369.9063 100.0406,369.7656 C99.9,369.6406 99.8688,369.5156 99.8063,369.1094 C99.7125,368.7031 99.5406,368.4844 99.0563,368.2031 C98.5875,367.9531 97.9781,367.7969 97.4,367.7969 C95.6656,367.7969 94.4156,369.1094 94.4156,370.8906 L94.4156,371.9844 C94.4156,373.6875 95.7125,374.7813 97.7594,374.7813 C98.525,374.7813 99.2125,374.6563 99.6344,374.3906 C99.8219,374.2969 99.8219,374.2969 100.275,373.8125 C100.4625,373.625 100.6656,373.5469 100.8844,373.5469 C101.3531,373.5469 101.7438,373.9375 101.7438,374.3906 C101.7438,374.7813 101.4156,375.2344 100.8375,375.6406 C100.0875,376.1875 98.9313,376.4844 97.7125,376.4844 C94.8219,376.4844 92.7125,374.5938 92.7125,372.0156 L92.7125,370.8906 C92.7125,368.1719 94.7125,366.0938 97.3375,366.0938 C98.2125,366.0938 98.8063,366.2344 99.7438,366.6719 Z "/><text fill="#000000" font-family="sans-serif" font-size="12" lengthAdjust="spacingAndGlyphs" textLength="38" x="113.6" y="375.1543">Match</text><line style="stroke: #A80036; stroke-width: 1.5;" x1="73.5" x2="163.5" y1="387" y2="387"/><text fill="#000000" font-family="sans-serif" font-size="11" lengthAdjust="spacingAndGlyphs" textLength="19" x="78.5" y="401.2104">UID</text><text fill="#000000" font-family="sans-serif" font-size="11" lengthAdjust="spacingAndGlyphs" textLength="43" x="78.5" y="414.0151">Team 1</text><text fill="#000000" font-family="sans-serif" font-size="11" lengthAdjust="spacingAndGlyphs" textLength="43" x="78.5" y="426.8198">Team 2</text><text fill="#000000" font-family="sans-serif" font-size="11" lengthAdjust="spacingAndGlyphs" textLength="80" x="78.5" y="456.4292">Table Number</text><text fill="#000000" font-family="sans-serif" font-size="11" lengthAdjust="spacingAndGlyphs" textLength="65" x="78.5" y="469.2339">Match Start</text><text fill="#000000" font-family="sans-serif" font-size="11" lengthAdjust="spacingAndGlyphs" textLength="58" x="78.5" y="482.0386">Match End</text><line style="stroke: #A80036; stroke-width: 1.0;" x1="73.5" x2="96" y1="439.8164" y2="439.8164"/><line style="stroke: #A80036; stroke-width: 1.0;" x1="73.5" x2="96" y1="441.8164" y2="441.8164"/><text fill="#000000" font-family="sans-serif" font-size="11" lengthAdjust="spacingAndGlyphs" textLength="45" x="96" y="443.1245">optional</text><line style="stroke: #A80036; stroke-width: 1.0;" x1="141" x2="163.5" y1="439.8164" y2="439.8164"/><line style="stroke: #A80036; stroke-width: 1.0;" x1="141" x2="163.5" y1="441.8164" y2="441.8164"/><!--class Event--><rect fill="#FEFECE" filter="url(#f1bqqle998xb1q)" height="94.4141" id="Event" style="stroke: #A80036; stroke-width: 1.5;" width="225" x="6" y="201"/><ellipse cx="96.75" cy="217" fill="#ADD1B2" rx="11" ry="11" style="stroke: #A80036; stroke-width: 1.0;"/><path d="M99.0938,212.6719 L99.2656,212.75 C99.4844,212.4375 99.6875,212.3438 99.9844,212.3438 C100.2813,212.3438 100.5625,212.4844 100.7188,212.75 C100.8125,212.9063 100.8281,213.0313 100.8281,213.4688 L100.8281,214.8906 C100.8281,215.3125 100.7969,215.5 100.6875,215.6563 C100.5156,215.875 100.25,216.0156 99.9844,216.0156 C99.7656,216.0156 99.5313,215.9063 99.3906,215.7656 C99.25,215.6406 99.2188,215.5156 99.1563,215.1094 C99.0625,214.7031 98.8906,214.4844 98.4063,214.2031 C97.9375,213.9531 97.3281,213.7969 96.75,213.7969 C95.0156,213.7969 93.7656,215.1094 93.7656,216.8906 L93.7656,217.9844 C93.7656,219.6875 95.0625,220.7813 97.1094,220.7813 C97.875,220.7813 98.5625,220.6563 98.9844,220.3906 C99.1719,220.2969 99.1719,220.2969 99.625,219.8125 C99.8125,219.625 100.0156,219.5469 100.2344,219.5469 C100.7031,219.5469 101.0938,219.9375 101.0938,220.3906 C101.0938,220.7813 100.7656,221.2344 100.1875,221.6406 C99.4375,222.1875 98.2813,222.4844 97.0625,222.4844 C94.1719,222.4844 92.0625,220.5938 92.0625,218.0156 L92.0625,216.8906 C92.0625,214.1719 94.0625,212.0938 96.6875,212.0938 C97.5625,212.0938 98.1563,212.2344 99.0938,212.6719 Z "/><text fill="#000000" font-family="sans-serif" font-size="12" lengthAdjust="spacingAndGlyphs" textLength="35" x="117.25" y="221.1543">Event</text><line style="stroke: #A80036; stroke-width: 1.5;" x1="7" x2="230" y1="233" y2="233"/><text fill="#000000" font-family="sans-serif" font-size="11" lengthAdjust="spacingAndGlyphs" textLength="19" x="12" y="247.2104">UID</text><text fill="#000000" font-family="sans-serif" font-size="11" lengthAdjust="spacingAndGlyphs" textLength="33" x="12" y="260.0151">Name</text><line style="stroke: #A80036; stroke-width: 1.0; stroke-dasharray: 1.0,2.0;" x1="7" x2="230" y1="266.6094" y2="266.6094"/><text fill="#000000" font-family="sans-serif" font-size="11" lengthAdjust="spacingAndGlyphs" textLength="213" x="12" y="280.8198">(e.g. "Open Singles" or "2 beer DYP")</text><line style="stroke: #A80036; stroke-width: 1.0; stroke-dasharray: 1.0,2.0;" x1="7" x2="230" y1="287.4141" y2="287.4141"/><!--class Tournament--><rect fill="#FEFECE" filter="url(#f1bqqle998xb1q)" height="132.8281" id="Tournament" style="stroke: #A80036; stroke-width: 1.5;" width="211" x="13" y="8"/><ellipse cx="76.25" cy="24" fill="#ADD1B2" rx="11" ry="11" style="stroke: #A80036; stroke-width: 1.0;"/><path d="M78.5938,19.6719 L78.7656,19.75 C78.9844,19.4375 79.1875,19.3438 79.4844,19.3438 C79.7813,19.3438 80.0625,19.4844 80.2188,19.75 C80.3125,19.9063 80.3281,20.0313 80.3281,20.4688 L80.3281,21.8906 C80.3281,22.3125 80.2969,22.5 80.1875,22.6563 C80.0156,22.875 79.75,23.0156 79.4844,23.0156 C79.2656,23.0156 79.0313,22.9063 78.8906,22.7656 C78.75,22.6406 78.7188,22.5156 78.6563,22.1094 C78.5625,21.7031 78.3906,21.4844 77.9063,21.2031 C77.4375,20.9531 76.8281,20.7969 76.25,20.7969 C74.5156,20.7969 73.2656,22.1094 73.2656,23.8906 L73.2656,24.9844 C73.2656,26.6875 74.5625,27.7813 76.6094,27.7813 C77.375,27.7813 78.0625,27.6563 78.4844,27.3906 C78.6719,27.2969 78.6719,27.2969 79.125,26.8125 C79.3125,26.625 79.5156,26.5469 79.7344,26.5469 C80.2031,26.5469 80.5938,26.9375 80.5938,27.3906 C80.5938,27.7813 80.2656,28.2344 79.6875,28.6406 C78.9375,29.1875 77.7813,29.4844 76.5625,29.4844 C73.6719,29.4844 71.5625,27.5938 71.5625,25.0156 L71.5625,23.8906 C71.5625,21.1719 73.5625,19.0938 76.1875,19.0938 C77.0625,19.0938 77.6563,19.2344 78.5938,19.6719 Z "/><text fill="#000000" font-family="sans-serif" font-size="12" lengthAdjust="spacingAndGlyphs" textLength="76" x="96.75" y="28.1543">Tournament</text><line style="stroke: #A80036; stroke-width: 1.5;" x1="14" x2="223" y1="40" y2="40"/><text fill="#000000" font-family="sans-serif" font-size="11" lengthAdjust="spacingAndGlyphs" textLength="19" x="19" y="54.2104">UID</text><text fill="#000000" font-family="sans-serif" font-size="11" lengthAdjust="spacingAndGlyphs" textLength="33" x="19" y="67.0151">Name</text><line style="stroke: #A80036; stroke-width: 1.0; stroke-dasharray: 1.0,2.0;" x1="14" x2="223" y1="73.6094" y2="73.6094"/><text fill="#000000" font-family="sans-serif" font-size="11" lengthAdjust="spacingAndGlyphs" textLength="173" x="19" y="87.8198">(e.g. "Colorado State 2018" or</text><text fill="#000000" font-family="sans-serif" font-size="11" lengthAdjust="spacingAndGlyphs" textLength="199" x="19" y="100.6245">"Weekly Monday Night at Freddy's")</text><line style="stroke: #A80036; stroke-width: 1.0; stroke-dasharray: 1.0,2.0;" x1="14" x2="223" y1="107.2188" y2="107.2188"/><text fill="#000000" font-family="sans-serif" font-size="11" lengthAdjust="spacingAndGlyphs" textLength="26" x="19" y="121.4292">Date</text><text fill="#000000" font-family="sans-serif" font-size="11" lengthAdjust="spacingAndGlyphs" textLength="47" x="19" y="134.2339">Location</text><!--link Tournament to Event--><path d="M118.5,154.502 C118.5,170.344 118.5,186.494 118.5,200.773 " fill="none" id="Tournament-Event" style="stroke: #A80036; stroke-width: 1.0;"/><polygon fill="#A80036" points="118.5,141.316,114.5,147.316,118.5,153.316,122.5,147.316,118.5,141.316" style="stroke: #A80036; stroke-width: 1.0;"/><text fill="#000000" font-family="sans-serif" font-size="13" lengthAdjust="spacingAndGlyphs" textLength="8" x="110.0875" y="161.0624">1</text><text fill="#000000" font-family="sans-serif" font-size="13" lengthAdjust="spacingAndGlyphs" textLength="36" x="79.8563" y="189.7812">many</text><!--link Event to Match--><path d="M118.5,308.419 C118.5,323.357 118.5,339.481 118.5,354.731 " fill="none" id="Event-Match" style="stroke: #A80036; stroke-width: 1.0;"/><polygon fill="#A80036" points="118.5,295.093,114.5,301.093,118.5,307.093,122.5,301.093,118.5,295.093" style="stroke: #A80036; stroke-width: 1.0;"/><text fill="#000000" font-family="sans-serif" font-size="13" lengthAdjust="spacingAndGlyphs" textLength="8" x="109.8875" y="315.4979">1</text><text fill="#000000" font-family="sans-serif" font-size="13" lengthAdjust="spacingAndGlyphs" textLength="36" x="80.6438" y="344.1131">many</text><!--link Match to Team--><path d="M118.5,502.789 C118.5,518.86 118.5,534.996 118.5,548.663 " fill="none" id="Match-Team" style="stroke: #A80036; stroke-width: 1.0;"/><polygon fill="#A80036" points="118.5,489.359,114.5,495.359,118.5,501.359,122.5,495.359,118.5,489.359" style="stroke: #A80036; stroke-width: 1.0;"/><text fill="#000000" font-family="sans-serif" font-size="13" lengthAdjust="spacingAndGlyphs" textLength="8" x="110.1188" y="508.5847">1</text><text fill="#000000" font-family="sans-serif" font-size="13" lengthAdjust="spacingAndGlyphs" textLength="8" x="109.8125" y="538.0685">2</text><!--link Team to Player--><path d="M118.5,636.256 C118.5,651.755 118.5,668.5733 118.5,682.974 " fill="none" id="Team-Player" style="stroke: #A80036; stroke-width: 1.0;"/><polygon fill="#A80036" points="118.5,623.07,114.5,629.07,118.5,635.07,122.5,629.07,118.5,623.07" style="stroke: #A80036; stroke-width: 1.0;"/><text fill="#000000" font-family="sans-serif" font-size="13" lengthAdjust="spacingAndGlyphs" textLength="8" x="109.8375" y="642.5621">1</text><text fill="#000000" font-family="sans-serif" font-size="13" lengthAdjust="spacingAndGlyphs" textLength="8" x="109.7625" y="671.8797">4</text><!--
@startuml
Class Player {
 {field} UID
 {field} Name
}
Class Team {
 {field} UID
 {field} Players[]
}
Class Match {
 {field} UID
 {field} Team 1
 {field} Team 2
== optional ==
 {field} Table Number
 {field} Match Start
 {field} Match End
}
Class Event {
 {field} UID
 {field} Name
..
(e.g. "Open Singles" or "2 beer DYP")
..
}
Class Tournament {
  {field} UID
  {field} Name
..
(e.g. "Colorado State 2018" or 
"Weekly Monday Night at Freddy's")
..
  {field} Date
  {field} Location
}
Tournament "1" *- - "many" Event
Event "1" *- - "many" Match
Match "1" *- - "2" Team
Team "1" *- - "4" Player
@enduml

PlantUML version 1.2018.11beta1(Unknown compile time)
(GPL source distribution)
Java Runtime: Java(TM) SE Runtime Environment
JVM: Java HotSpot(TM) 64-Bit Server VM
Java Version: 1.7.0_25-b15
Operating System: Linux
Default Encoding: UTF-8
Language: en
Country: US
--></g></svg>